<?xml version="1.0" encoding="utf-8"?>
<!-- Generator: Adobe Illustrator 26.1.0, SVG Export Plug-In . SVG Version: 6.00 Build 0)  -->
<svg version="1.1" id="Layer_1" xmlns="http://www.w3.org/2000/svg" xmlns:xlink="http://www.w3.org/1999/xlink" x="0px" y="0px"
	 viewBox="0 0 146.6 32" style="enable-background:new 0 0 146.6 32;" xml:space="preserve">
<style type="text/css">
	.st0{fill:#009444;}
	.st1{enable-background:new    ;}
</style>
<g>
	<g>
		<g>
			<g>
				<path d="M11.8,5.6L11.8,5.6c-1.9,0-3.6,0.5-5,1.5c0.4,0.6,0.7,1.4,0.8,2.1c0.2,1.1,0,2.4,0,3.3c0.7-1.5,2.6-2.3,4.5-2.3l0,0
					c2.5,0,4.5,2,4.5,4.5v8.1c0,2.5-2,4.5-4.5,4.5l0,0c-1.4,0-2.9-0.4-3.8-1.5l0,0l-3.2,3.3c1.7,1.8,4.1,2.8,6.7,2.8l0,0
					c5.2,0,9.4-4.2,9.4-9.4v-7.6C21.2,9.8,17,5.6,11.8,5.6z"/>
				<path class="st0" d="M15.7,17.8c-1,1.2-2.5,2-4.2,2c-2.7,0-4.9-2.2-4.9-4.9l0.1-4.5c0-0.2,0-0.6,0-0.9c0-0.2,0-0.4-0.1-0.6
					C5.9,5.8,2.5,5.5,2.5,5.5v9.8c0,5,4,9,9,9h0.4c1.3,0,2.6-0.3,3.8-0.8V17.8z"/>
				<g>
					<path class="st0" d="M7.5,2.4c0,1.2-1,2.2-2.2,2.2s-2.2-1-2.2-2.2s1-2.2,2.2-2.2C6.5,0.2,7.5,1.2,7.5,2.4z"/>
					<path class="st0" d="M3.1,2.1c0,0-0.1,1.2-0.4,1.8c0,0,0.8,0.6,2.6,0.7l0.5-2.2L5.1,2L3.1,2.1z"/>
				</g>
			</g>
			<g>
				<g>
					<g class="st1">
						<path d="M29.2,23.3V11.4c0-0.5,0.2-0.9,0.5-1.3c0.4-0.3,0.8-0.5,1.2-0.5h1.6c0.2,0,0.3,0,0.4,0.1S33,9.9,33,10.1v13.1
							c0,0.1,0,0.2-0.1,0.3c-0.1,0.1-0.2,0.2-0.4,0.2h-2.9c-0.1,0-0.3,0-0.4-0.2C29.2,23.6,29.2,23.4,29.2,23.3z"/>
						<path d="M35.8,23.3V11.4c0-0.5,0.2-0.9,0.5-1.2c0.3-0.4,0.8-0.5,1.3-0.5h0.7c0.1,0,0.3,0,0.5,0.1c0.2,0.1,0.4,0.2,0.6,0.5
							c0.8,1.2,1.5,2.4,2.1,3.4c0.4,0.6,0.7,1.1,0.9,1.4c0.2,0.4,0.4,0.7,0.6,1c0.2,0.3,0.4,0.6,0.5,0.8c0.1,0.2,0.2,0.3,0.2,0.4
							c0,0,0,0,0.1,0s0.1,0,0.1-0.1v-5.8c0-0.5,0.2-1,0.5-1.3s0.8-0.5,1.2-0.5h1.3c0.1,0,0.3,0,0.4,0.1s0.1,0.2,0.1,0.4v13.1
							c0,0.1,0,0.2-0.1,0.4c-0.1,0.1-0.2,0.2-0.4,0.2h-2.3c-0.3,0-0.5-0.1-0.7-0.4c-0.8-1.2-1.5-2.4-2.2-3.3
							c-0.4-0.6-0.7-1.1-0.9-1.4c-0.2-0.4-0.4-0.7-0.6-1c-0.2-0.3-0.4-0.6-0.5-0.8c-0.1-0.2-0.2-0.3-0.2-0.4l-0.1-0.1
							c-0.1,0-0.1,0-0.1,0.1v6.8c0,0.1-0.1,0.3-0.2,0.4s-0.2,0.1-0.4,0.1h-2.6c-0.1,0-0.2-0.1-0.3-0.2
							C35.9,23.5,35.8,23.4,35.8,23.3z"/>
						<path d="M50.5,23.3V11.4c0-0.3,0.1-0.5,0.2-0.7s0.2-0.4,0.4-0.6s0.4-0.3,0.6-0.4c0.2-0.1,0.4-0.1,0.6-0.1h8.1
							c0.1,0,0.3,0.1,0.4,0.2c0.1,0.1,0.2,0.2,0.2,0.4v2.1c0,0.1-0.1,0.3-0.2,0.3c-0.1,0.1-0.2,0.1-0.4,0.1h-7.3
							c0.3,0,0.6,0.1,0.8,0.3c0.2,0.2,0.3,0.5,0.3,0.8v1.7h4.9c0.4,0,0.5,0.2,0.5,0.5v2.1c0,0.2,0,0.3-0.1,0.4s-0.2,0.1-0.4,0.1h-6
							c0.3,0,0.5,0.1,0.8,0.3s0.4,0.5,0.4,0.8V23c0,0.1,0,0.3-0.1,0.4s-0.2,0.1-0.4,0.1h-2.7c-0.1,0-0.3,0-0.4-0.1
							C50.5,23.6,50.5,23.4,50.5,23.3z"/>
						<path d="M68.8,24.1c-1.9,0-3.4-0.5-4.5-1.4s-1.7-2.3-1.8-4.1c0-0.4,0-1,0-1.7s0-1.4,0-1.8c0.1-1.8,0.6-3.2,1.8-4.1
							c1.1-1,2.6-1.4,4.5-1.4s3.4,0.5,4.5,1.4c1.1,1,1.7,2.3,1.8,4.1c0,0.8,0,1.4,0,1.8s0,1,0,1.7c-0.1,1.8-0.7,3.2-1.8,4.1
							C72.2,23.6,70.7,24.1,68.8,24.1z M68.8,21c0.7,0,1.3-0.2,1.7-0.6c0.4-0.4,0.6-1.1,0.7-2c0-0.8,0-1.3,0-1.7s0-0.9,0-1.6
							c0-0.9-0.3-1.5-0.7-2c-0.4-0.4-1-0.6-1.7-0.6s-1.3,0.2-1.7,0.6s-0.6,1.1-0.7,2c0,0.4,0,0.9,0,1.6c0,0.7,0,1.3,0,1.7
							c0,0.9,0.2,1.5,0.7,2S68.1,21,68.8,21z"/>
					</g>
					<g class="st1">
						<path class="st0" d="M77.2,18.6c0-0.2,0-0.5,0-0.8s0-0.7,0-1.1s0-0.8,0-1.1s0-0.6,0-0.8c0-0.9,0.2-1.7,0.6-2.4
							s0.8-1.2,1.4-1.7s1.2-0.8,2-1s1.6-0.3,2.4-0.3c0.5,0,1,0,1.5,0.1s1,0.2,1.5,0.4s1,0.4,1.4,0.7s0.8,0.6,1.1,1.1
							c0.5,0.6,0.8,1.3,0.8,2c0,0.1,0,0.2-0.1,0.3s-0.2,0.1-0.3,0.1h-3.2c-0.1,0-0.2,0-0.3-0.1c-0.1-0.1-0.1-0.1-0.2-0.2
							c-0.2-0.5-0.5-0.9-0.9-1.1c-0.4-0.2-0.9-0.3-1.4-0.3c-1.6,0-2.4,0.8-2.4,2.4c0,0.2,0,0.4,0,0.7s0,0.6,0,1c0,0.4,0,0.7,0,1
							s0,0.5,0,0.7c0,0.9,0.3,1.5,0.7,1.9s1.1,0.6,2.1,0.6c0.3,0,0.6,0,0.8,0c0.2,0,0.4-0.1,0.5-0.1s0.3-0.1,0.4-0.2
							s0.2-0.2,0.3-0.3c0.3-0.3,0.5-0.6,0.6-1c0.1-0.2,0.1-0.4,0.3-0.5c0.1-0.1,0.3-0.3,0.4-0.3s0.3-0.2,0.4-0.2s0.2-0.1,0.3-0.1
							h-3.6c-0.1,0-0.3-0.1-0.4-0.2s-0.2-0.2-0.2-0.4V17c0-0.2,0-0.4,0.1-0.6s0.2-0.4,0.3-0.6c0.1-0.2,0.3-0.3,0.5-0.4
							c0.2-0.1,0.5-0.2,0.8-0.2h3c0.5,0,0.9,0.1,1.1,0.4s0.3,0.6,0.3,1.1v1.4c0,1-0.2,1.8-0.5,2.5s-0.8,1.3-1.4,1.7
							c-0.6,0.4-1.3,0.8-2,1c-0.8,0.2-1.6,0.3-2.5,0.3s-1.7-0.1-2.5-0.3c-0.8-0.2-1.4-0.5-2-1c-0.6-0.4-1-1-1.3-1.7
							S77.2,19.5,77.2,18.6z"/>
						<path class="st0" d="M103.9,23.8H101c-0.4,0-0.6-0.2-0.8-0.5l-2.1-4.1c-0.1-0.2-0.3-0.3-0.5-0.3h-2.7c0.3,0,0.6,0.1,0.8,0.4
							c0.2,0.2,0.3,0.5,0.3,0.7v3.3c0,0.1,0,0.3-0.1,0.3c-0.1,0.1-0.2,0.1-0.4,0.1h-2.8c-0.1,0-0.3,0-0.4-0.2s-0.2-0.2-0.2-0.3V11.4
							c0-0.5,0.2-0.9,0.5-1.2s0.8-0.5,1.2-0.5h4.3c0.8,0,1.5,0.1,2.2,0.2s1.3,0.4,1.8,0.8c0.5,0.4,0.9,0.8,1.2,1.4
							c0.3,0.6,0.5,1.3,0.5,2.2c0,0.8-0.2,1.5-0.5,2.2c-0.4,0.6-0.9,1.2-1.6,1.6c-0.1,0.1-0.2,0.1-0.2,0.2s0,0.2,0.1,0.2l2.6,4.6
							c0,0.1,0.1,0.2,0.1,0.2c0,0.1,0,0.2-0.1,0.3S104,23.8,103.9,23.8z M100.1,14.2c0-0.6-0.2-1-0.5-1.3s-0.8-0.4-1.3-0.4h-3.5
							c0.3,0,0.6,0.1,0.8,0.3c0.2,0.2,0.3,0.5,0.3,0.7v1.6c0,0.2,0.1,0.3,0.2,0.4c0.1,0.1,0.3,0.2,0.4,0.2h1.8c0.5,0,1-0.1,1.3-0.4
							C99.9,15.2,100.1,14.9,100.1,14.2z"/>
						<path class="st0" d="M106.3,23.3V11.4c0-0.5,0.2-0.9,0.5-1.3c0.4-0.3,0.8-0.5,1.2-0.5h8.3c0.1,0,0.3,0.1,0.4,0.2
							s0.2,0.2,0.2,0.4v2c0,0.1,0,0.3-0.1,0.3c-0.1,0.1-0.2,0.1-0.4,0.1h-7.5c0.3,0,0.6,0.1,0.8,0.3s0.3,0.5,0.3,0.8v0.9
							c0,0.1,0.1,0.3,0.2,0.4c0.1,0.1,0.3,0.2,0.5,0.2h4.4c0.1,0,0.3,0.1,0.4,0.2c0.1,0.1,0.2,0.2,0.2,0.4v1.8
							c0,0.1-0.1,0.3-0.2,0.4c-0.1,0.1-0.2,0.2-0.4,0.2H109c0.3,0,0.6,0.1,0.8,0.3c0.2,0.2,0.3,0.5,0.3,0.7v1c0,0.1,0.1,0.3,0.2,0.4
							c0.1,0.1,0.3,0.2,0.4,0.2h5.9c0.4,0,0.5,0.2,0.5,0.5v2c0,0.2-0.1,0.3-0.2,0.4s-0.2,0.1-0.4,0.1h-9.7c-0.1,0-0.3,0-0.4-0.2
							C106.4,23.6,106.3,23.4,106.3,23.3z"/>
						<path class="st0" d="M119.3,23.3V11.4c0-0.5,0.2-0.9,0.5-1.3s0.8-0.5,1.2-0.5h8.3c0.1,0,0.3,0.1,0.4,0.2s0.2,0.2,0.2,0.4v2
							c0,0.1,0,0.3-0.1,0.3c-0.1,0.1-0.2,0.1-0.4,0.1h-7.5c0.3,0,0.6,0.1,0.8,0.3s0.3,0.5,0.3,0.8v0.9c0,0.1,0.1,0.3,0.2,0.4
							c0.1,0.1,0.3,0.2,0.5,0.2h4.4c0.1,0,0.3,0.1,0.4,0.2s0.2,0.2,0.2,0.4v1.8c0,0.1,0,0.3-0.2,0.4s-0.2,0.2-0.4,0.2H122
							c0.3,0,0.6,0.1,0.8,0.3c0.2,0.2,0.3,0.5,0.3,0.7v1c0,0.1,0.1,0.3,0.2,0.4c0.1,0.1,0.3,0.2,0.4,0.2h5.9c0.4,0,0.5,0.2,0.5,0.5
							v2c0,0.2,0,0.3-0.2,0.4s-0.2,0.1-0.4,0.1h-9.7c-0.1,0-0.3,0-0.4-0.2S119.3,23.4,119.3,23.3z"/>
						<path class="st0" d="M132.3,23.3V11.4c0-0.5,0.2-0.9,0.5-1.2c0.3-0.4,0.8-0.5,1.3-0.5h0.7c0.1,0,0.3,0,0.5,0.1
							s0.4,0.2,0.6,0.5c0.8,1.2,1.5,2.4,2.1,3.4c0.4,0.6,0.7,1.1,0.9,1.4c0.2,0.4,0.4,0.7,0.6,1c0.2,0.3,0.4,0.6,0.5,0.8
							s0.2,0.3,0.2,0.4c0,0,0,0,0.1,0s0.1,0,0.1-0.1v-5.8c0-0.5,0.2-1,0.5-1.3c0.4-0.3,0.8-0.5,1.2-0.5h1.3c0.1,0,0.3,0,0.4,0.1
							c0.1,0.1,0.1,0.2,0.1,0.4v13.1c0,0.1,0,0.2-0.1,0.4c-0.1,0.1-0.2,0.2-0.4,0.2h-2.3c-0.3,0-0.5-0.1-0.7-0.4
							c-0.8-1.2-1.5-2.4-2.2-3.3c-0.4-0.6-0.7-1.1-0.9-1.4c-0.2-0.4-0.4-0.7-0.6-1c-0.2-0.3-0.4-0.6-0.5-0.8
							c-0.1-0.2-0.2-0.3-0.2-0.4l-0.1-0.1c-0.1,0-0.1,0-0.1,0.1v6.8c0,0.1-0.1,0.3-0.2,0.4c-0.1,0.1-0.2,0.1-0.4,0.1h-2.6
							c-0.1,0-0.2-0.1-0.3-0.2S132.3,23.4,132.3,23.3z"/>
					</g>
				</g>
			</g>
		</g>
		<rect x="29.2" y="28.1" class="st0" width="39.6" height="0.6"/>
		<rect x="78.8" y="4.7" class="st0" width="64.4" height="0.6"/>
	</g>
	<rect x="52.6" y="12.4" width="1.6" height="10.7"/>
	<rect x="94.2" y="11.8" class="st0" width="1.6" height="10.7"/>
	<rect x="108.2" y="11.8" class="st0" width="1.6" height="10.7"/>
	<rect x="121.2" y="11.4" class="st0" width="1.6" height="10.7"/>
</g>
</svg>
